<?xml version="1.0" encoding="UTF-8" standalone="no"?>
<svg
   xmlns:dc="http://purl.org/dc/elements/1.1/"
   xmlns:cc="http://creativecommons.org/ns#"
   xmlns:rdf="http://www.w3.org/1999/02/22-rdf-syntax-ns#"
   xmlns:svg="http://www.w3.org/2000/svg"
   xmlns="http://www.w3.org/2000/svg"
   xmlns:xlink="http://www.w3.org/1999/xlink"
   xmlns:sodipodi="http://sodipodi.sourceforge.net/DTD/sodipodi-0.dtd"
   xmlns:inkscape="http://www.inkscape.org/namespaces/inkscape"
   inkscape:version="1.0 (1.0+r73+1)"
   sodipodi:docname="folder-dropbox.svg"
   id="svg56"
   viewBox="0 0 16.933 16.933"
   version="1.1"
   height="64"
   width="64">
  <sodipodi:namedview
     inkscape:current-layer="svg56"
     inkscape:window-maximized="1"
     inkscape:window-y="0"
     inkscape:window-x="0"
     inkscape:cy="32"
     inkscape:cx="32.074941"
     inkscape:zoom="13.34375"
     showgrid="false"
     id="namedview58"
     inkscape:window-height="1025"
     inkscape:window-width="1920"
     inkscape:pageshadow="2"
     inkscape:pageopacity="0"
     guidetolerance="10"
     gridtolerance="10"
     objecttolerance="10"
     borderopacity="1"
     bordercolor="#666666"
     pagecolor="#ffffff" />
  <defs
     id="defs18">
    <linearGradient
       gradientUnits="userSpaceOnUse"
       gradientTransform="matrix(1 0 0 1.1 16.669 62.435)"
       y2="-54.196"
       y1="-43.254"
       x2="-.30109"
       x1="-15.961"
       id="linearGradient1064">
      <stop
         id="stop2"
         offset="0"
         stop-color="#005ae1" />
      <stop
         id="stop4"
         offset="1"
         stop-color="#228be6" />
    </linearGradient>
    <linearGradient
       gradientUnits="userSpaceOnUse"
       gradientTransform="matrix(1 0 0 1.1 16.669 62.435)"
       y2="-44.835"
       y1="-55.616"
       x2="-1.0699"
       x1="-16.14"
       id="linearGradient992">
      <stop
         id="stop7"
         offset="0"
         stop-color="#005ae1" />
      <stop
         id="stop9"
         offset="1"
         stop-color="#228be6" />
    </linearGradient>
    <linearGradient
       gradientUnits="userSpaceOnUse"
       gradientTransform="matrix(1,0,0,1.1,16.669,62.435)"
       y2="14.872"
       y1="2.7784"
       x2="16.217"
       x1=".52939"
       id="linearGradient1006">
      <stop
         id="stop12"
         offset="0"
         stop-color="#005ae1" />
      <stop
         id="stop14"
         offset="1"
         stop-color="#228be6" />
    </linearGradient>
    <linearGradient
       xlink:href="#linearGradient992"
       gradientUnits="userSpaceOnUse"
       gradientTransform="matrix(1,0,0,1.1,16.669,62.435)"
       y2="-44.835"
       y1="-55.616"
       x2="-1.0699"
       x1="-16.14"
       id="linearGradient939" />
  </defs>
  <metadata
     id="metadata20">
    <rdf:RDF>
      <cc:Work
         rdf:about="">
        <dc:format>image/svg+xml</dc:format>
        <dc:type
           rdf:resource="http://purl.org/dc/dcmitype/StillImage" />
        <dc:title />
      </cc:Work>
    </rdf:RDF>
  </metadata>
  <g
     id="g30"
     stroke-width=".26458"
     fill="#5e4aa6">
    <circle
       id="circle22"
       r="0"
       cy="-328.38"
       cx="-330.35" />
    <circle
       id="circle24"
       r="0"
       cy="-326.25"
       cx="-312.11" />
    <circle
       id="circle26"
       r="0"
       cy="-333.07"
       cx="-306.02" />
    <circle
       id="circle28"
       r="0"
       cy="-326.01"
       cx="-308.84" />
  </g>
  <g
     id="g42"
     stroke-width=".26458"
     fill="#5e4aa6"
     transform="translate(.000295 -.00032978)">
    <circle
       id="circle32"
       r="0"
       cy="-328.38"
       cx="-330.35" />
    <circle
       id="circle34"
       r="0"
       cy="-326.25"
       cx="-312.11" />
    <circle
       id="circle36"
       r="0"
       cy="-333.07"
       cx="-306.02" />
    <circle
       id="circle38"
       r="0"
       cy="-326.01"
       cx="-308.84" />
    <circle
       id="circle40"
       r="0"
       cy="-330.45"
       cx="-328.8" />
  </g>
  <g
     id="g52"
     transform="translate(.000295 -.00032978)">
    <g
       id="g46"
       stroke-width=".66145"
       fill="url(#linearGradient939)"
       transform="matrix(1,0,0,1.1,16.669,63.956)">
      <path
         id="path44"
         fill="url(#linearGradient939)"
         d="m-8.2026-51.317h-7.9373v-3.6379c0-0.36531 0.29614-0.66144 0.66144-0.66144h5.6223l1.6536 1.3229z" />
    </g>
    <rect
       id="rect48"
       fill="url(#linearGradient1006)"
       ry=".79373"
       height="10.848"
       width="15.874"
       y="4.2333"
       x=".52939" />
    <rect
       id="rect50"
       fill="#fffffc"
       ry=".29919"
       height="9.9217"
       width="14.987"
       y="4.6963"
       x=".97311" />
  </g>
  <path
     id="path54"
     stroke-width=".69373"
     fill="url(#linearGradient1064)"
     d="m15.742 4.2329h-7.2759l-1.6536 1.4552h-5.6223c-0.36531 0-0.66144 0.32575-0.66144 0.72759v7.9373c0 0.40184 0.29614 0.72759 0.66144 0.72759h14.552c0.36531 0 0.66145-0.32575 0.66145-0.72759v-9.3926c0-0.40184-0.29614-0.72759-0.66145-0.72759z" />
  <g
     style="fill:#001e52;fill-opacity:1"
     transform="matrix(0.11120649,0,0,0.11120649,5.5379777,7.1953889)"
     id="g8">
    <g
       style="fill:#001e52;fill-opacity:1"
       id="g6">
      <path
         style="fill:#001e52;fill-opacity:1"
         d="m 28.901,35.087 -10.716,8.179 -6.156,-3.628 v 4.727 l 16.72,11.107 17.092,-11.028 v -4.896 l -6.228,3.718 z m 14.94,8.267 -15.076,9.728 -14.735,-9.789 v -0.154 l 4.299,2.532 10.573,-8.067 10.577,8.073 4.363,-2.604 v 0.281 z"
         id="path2" />
      <path
         style="fill:#001e52;fill-opacity:1"
         d="M 18.264,41.858 28.902,33.739 39.539,41.861 57.504,31.137 46.889,22.086 57.49,13.298 39.777,2.041 28.909,11.107 18.274,2.032 0.053,13.838 11.43,22.446 0,31.097 Z M 54.084,30.85 39.676,39.449 30.252,32.255 44.622,22.783 Z M 39.937,4.512 l 14.161,9 -9.002,7.461 -14.772,-8.442 z M 28.947,14.049 42.493,21.79 28.78,30.83 15.194,22.315 Z M 3.535,13.965 18.11,4.521 l 9.425,8.043 -14.408,8.659 z m 9.801,9.546 14.095,8.834 -9.312,7.106 L 3.588,30.89 Z"
         id="path4" />
    </g>
  </g>
</svg>
