<?xml version="1.0" encoding="UTF-8" standalone="no"?>
<svg
   xmlns:dc="http://purl.org/dc/elements/1.1/"
   xmlns:cc="http://creativecommons.org/ns#"
   xmlns:rdf="http://www.w3.org/1999/02/22-rdf-syntax-ns#"
   xmlns:svg="http://www.w3.org/2000/svg"
   xmlns="http://www.w3.org/2000/svg"
   xmlns:xlink="http://www.w3.org/1999/xlink"
   xmlns:sodipodi="http://sodipodi.sourceforge.net/DTD/sodipodi-0.dtd"
   xmlns:inkscape="http://www.inkscape.org/namespaces/inkscape"
   inkscape:version="1.0 (1.0+r73+1)"
   sodipodi:docname="folder-image-people.svg"
   id="svg56"
   viewBox="0 0 16.933 16.933"
   version="1.1"
   height="64"
   width="64">
  <sodipodi:namedview
     inkscape:current-layer="svg56"
     inkscape:window-maximized="1"
     inkscape:window-y="0"
     inkscape:window-x="0"
     inkscape:cy="37.29293"
     inkscape:cx="32.074941"
     inkscape:zoom="13.34375"
     showgrid="false"
     id="namedview58"
     inkscape:window-height="1025"
     inkscape:window-width="1920"
     inkscape:pageshadow="2"
     inkscape:pageopacity="0"
     guidetolerance="10"
     gridtolerance="10"
     objecttolerance="10"
     borderopacity="1"
     bordercolor="#666666"
     pagecolor="#ffffff" />
  <defs
     id="defs18">
    <linearGradient
       gradientUnits="userSpaceOnUse"
       gradientTransform="matrix(1 0 0 1.1 16.669 62.435)"
       y2="-54.196"
       y1="-43.254"
       x2="-.30109"
       x1="-15.961"
       id="linearGradient1064">
      <stop
         id="stop2"
         offset="0"
         stop-color="#005ae1" />
      <stop
         id="stop4"
         offset="1"
         stop-color="#228be6" />
    </linearGradient>
    <linearGradient
       gradientUnits="userSpaceOnUse"
       gradientTransform="matrix(1 0 0 1.1 16.669 62.435)"
       y2="-44.835"
       y1="-55.616"
       x2="-1.0699"
       x1="-16.14"
       id="linearGradient992">
      <stop
         id="stop7"
         offset="0"
         stop-color="#005ae1" />
      <stop
         id="stop9"
         offset="1"
         stop-color="#228be6" />
    </linearGradient>
    <linearGradient
       gradientUnits="userSpaceOnUse"
       gradientTransform="matrix(1,0,0,1.1,16.669,62.435)"
       y2="14.872"
       y1="2.7784"
       x2="16.217"
       x1=".52939"
       id="linearGradient1006">
      <stop
         id="stop12"
         offset="0"
         stop-color="#005ae1" />
      <stop
         id="stop14"
         offset="1"
         stop-color="#228be6" />
    </linearGradient>
    <linearGradient
       xlink:href="#linearGradient992"
       gradientUnits="userSpaceOnUse"
       gradientTransform="matrix(1,0,0,1.1,16.669,62.435)"
       y2="-44.835"
       y1="-55.616"
       x2="-1.0699"
       x1="-16.14"
       id="linearGradient939" />
  </defs>
  <metadata
     id="metadata20">
    <rdf:RDF>
      <cc:Work
         rdf:about="">
        <dc:format>image/svg+xml</dc:format>
        <dc:type
           rdf:resource="http://purl.org/dc/dcmitype/StillImage" />
        <dc:title />
      </cc:Work>
    </rdf:RDF>
  </metadata>
  <g
     id="g30"
     stroke-width=".26458"
     fill="#5e4aa6">
    <circle
       id="circle22"
       r="0"
       cy="-328.38"
       cx="-330.35" />
    <circle
       id="circle24"
       r="0"
       cy="-326.25"
       cx="-312.11" />
    <circle
       id="circle26"
       r="0"
       cy="-333.07"
       cx="-306.02" />
    <circle
       id="circle28"
       r="0"
       cy="-326.01"
       cx="-308.84" />
  </g>
  <g
     id="g42"
     stroke-width=".26458"
     fill="#5e4aa6"
     transform="translate(.000295 -.00032978)">
    <circle
       id="circle32"
       r="0"
       cy="-328.38"
       cx="-330.35" />
    <circle
       id="circle34"
       r="0"
       cy="-326.25"
       cx="-312.11" />
    <circle
       id="circle36"
       r="0"
       cy="-333.07"
       cx="-306.02" />
    <circle
       id="circle38"
       r="0"
       cy="-326.01"
       cx="-308.84" />
    <circle
       id="circle40"
       r="0"
       cy="-330.45"
       cx="-328.8" />
  </g>
  <g
     id="g52"
     transform="translate(.000295 -.00032978)">
    <g
       id="g46"
       stroke-width=".66145"
       fill="url(#linearGradient939)"
       transform="matrix(1,0,0,1.1,16.669,63.956)">
      <path
         id="path44"
         fill="url(#linearGradient939)"
         d="m-8.2026-51.317h-7.9373v-3.6379c0-0.36531 0.29614-0.66144 0.66144-0.66144h5.6223l1.6536 1.3229z" />
    </g>
    <rect
       id="rect48"
       fill="url(#linearGradient1006)"
       ry=".79373"
       height="10.848"
       width="15.874"
       y="4.2333"
       x=".52939" />
    <rect
       id="rect50"
       fill="#fffffc"
       ry=".29919"
       height="9.9217"
       width="14.987"
       y="4.6963"
       x=".97311" />
  </g>
  <path
     id="path54"
     stroke-width=".69373"
     fill="url(#linearGradient1064)"
     d="m15.742 4.2329h-7.2759l-1.6536 1.4552h-5.6223c-0.36531 0-0.66144 0.32575-0.66144 0.72759v7.9373c0 0.40184 0.29614 0.72759 0.66144 0.72759h14.552c0.36531 0 0.66145-0.32575 0.66145-0.72759v-9.3926c0-0.40184-0.29614-0.72759-0.66145-0.72759z" />
  <g
     style="fill:#001e52;fill-opacity:1"
     transform="matrix(0.01449633,0,0,0.01449633,5.3594174,7.1914623)"
     id="g16">
    <g
       style="fill:#001e52;fill-opacity:1"
       id="g14">
      <g
         style="fill:#001e52;fill-opacity:1"
         id="g12">
        <path
           style="fill:#001e52;fill-opacity:1"
           d="m 167.94,113.864 c 0,24.949 9.759,53.752 26.106,77.048 18.524,26.398 41.921,40.936 65.881,40.936 23.96,0 47.357,-14.538 65.882,-40.936 16.348,-23.296 26.107,-52.099 26.107,-77.048 0,-50.722 -41.266,-91.988 -91.988,-91.988 -50.722,0 -91.988,41.266 -91.988,91.988 z m 91.987,-76.988 c 42.451,0 76.988,34.537 76.988,76.988 0,21.655 -8.961,47.876 -23.385,68.432 -15.409,21.958 -34.946,34.552 -53.603,34.552 -18.657,0 -38.195,-12.594 -53.603,-34.552 -14.425,-20.556 -23.385,-46.778 -23.385,-68.432 0,-42.451 34.537,-76.988 76.988,-76.988 z"
           id="path2" />
        <path
           style="fill:#001e52;fill-opacity:1"
           d="m 394.724,272.992 c -16.208,-25.153 -39.026,-45.233 -65.987,-58.068 -2.863,-1.364 -6.274,-0.778 -8.52,1.461 -18.071,18.02 -38.921,27.545 -60.294,27.545 -21.376,0 -42.221,-9.524 -60.281,-27.544 -2.246,-2.241 -5.658,-2.826 -8.521,-1.463 -26.962,12.835 -49.782,32.915 -65.992,58.068 -16.651,25.837 -25.452,55.812 -25.452,86.686 v 0.13 c 0,2.117 0.894,4.134 2.461,5.556 43.276,39.247 99.312,60.861 157.785,60.861 58.473,0 114.508,-21.615 157.786,-60.86 1.567,-1.422 2.461,-3.44 2.461,-5.556 v -0.13 c 0,-30.875 -8.799,-60.851 -25.446,-86.686 z M 259.923,411.224 c -53.621,0 -105.055,-19.418 -145.212,-54.743 0.583,-26.856 8.514,-52.847 23.026,-75.364 13.767,-21.361 32.788,-38.686 55.227,-50.357 20.045,18.452 43.094,28.17 66.959,28.17 23.86,0 46.913,-9.719 66.969,-28.171 22.437,11.67 41.457,28.995 55.222,50.357 14.509,22.516 22.438,48.508 23.021,75.365 -40.157,35.326 -91.591,54.743 -145.212,54.743 z"
           id="path4" />
        <path
           style="fill:#001e52;fill-opacity:1"
           d="m 145.302,183.17 c 8.413,0 16.808,-2.053 24.952,-6.102 3.709,-1.844 5.221,-6.345 3.378,-10.054 -1.843,-3.709 -6.344,-5.221 -10.054,-3.378 -6.053,3.009 -12.202,4.534 -18.277,4.534 -15.752,0 -32.296,-10.703 -45.389,-29.364 C 87.588,121.241 79.932,98.849 79.932,80.37 79.932,44.325 109.257,15 145.302,15 c 17.014,0 33.125,6.504 45.367,18.316 2.98,2.875 7.729,2.791 10.605,-0.19 2.876,-2.981 2.791,-7.729 -0.19,-10.605 C 186.031,7.998 166.22,0 145.302,0 c -44.316,0 -80.37,36.054 -80.37,80.37 0,21.725 8.487,46.791 22.702,67.051 16.174,23.053 36.655,35.749 57.668,35.749 z"
           id="path6" />
        <path
           style="fill:#001e52;fill-opacity:1"
           d="m 70.687,323.095 c -18.072,-7.79 -34.74,-18.32 -49.592,-31.322 0.583,-22.801 7.359,-44.861 19.685,-63.986 11.645,-18.07 27.685,-32.762 46.602,-42.741 17.361,15.777 37.284,24.083 57.913,24.083 12.327,0 24.438,-2.964 35.996,-8.809 3.696,-1.87 5.177,-6.381 3.308,-10.078 -1.87,-3.696 -6.381,-5.177 -10.078,-3.308 -9.44,4.774 -19.273,7.194 -29.227,7.194 -18.152,0 -35.879,-8.112 -51.263,-23.459 -2.246,-2.24 -5.66,-2.824 -8.521,-1.462 -23.427,11.153 -43.255,28.6 -57.339,50.455 -14.469,22.452 -22.117,48.5 -22.117,75.328 v 0.11 c 0,2.117 0.894,4.134 2.461,5.556 16.699,15.144 35.619,27.329 56.234,36.215 0.967,0.418 1.974,0.615 2.965,0.615 2.903,0 5.668,-1.697 6.891,-4.535 1.64,-3.804 -0.114,-8.216 -3.918,-9.856 z"
           id="path8" />
        <path
           style="fill:#001e52;fill-opacity:1"
           d="m 92.046,331.164 c -2.693,-1.861 -6.347,-1.76 -8.929,0.26 -2.611,2.043 -3.542,5.703 -2.283,8.757 1.143,2.773 3.935,4.63 6.93,4.63 3.336,0 6.319,-2.291 7.218,-5.496 0.848,-3.022 -0.354,-6.366 -2.936,-8.151 z"
           id="path10" />
      </g>
    </g>
  </g>
</svg>
