<?xml version="1.0" encoding="UTF-8" standalone="no"?>
<svg
   xmlns:dc="http://purl.org/dc/elements/1.1/"
   xmlns:cc="http://creativecommons.org/ns#"
   xmlns:rdf="http://www.w3.org/1999/02/22-rdf-syntax-ns#"
   xmlns:svg="http://www.w3.org/2000/svg"
   xmlns="http://www.w3.org/2000/svg"
   xmlns:xlink="http://www.w3.org/1999/xlink"
   xmlns:sodipodi="http://sodipodi.sourceforge.net/DTD/sodipodi-0.dtd"
   xmlns:inkscape="http://www.inkscape.org/namespaces/inkscape"
   inkscape:version="1.0 (1.0+r73+1)"
   sodipodi:docname="folder-github.svg"
   id="svg56"
   viewBox="0 0 16.933 16.933"
   version="1.1"
   height="64"
   width="64">
  <sodipodi:namedview
     inkscape:current-layer="svg56"
     inkscape:window-maximized="1"
     inkscape:window-y="0"
     inkscape:window-x="0"
     inkscape:cy="32"
     inkscape:cx="32.074941"
     inkscape:zoom="13.34375"
     showgrid="false"
     id="namedview58"
     inkscape:window-height="1025"
     inkscape:window-width="1920"
     inkscape:pageshadow="2"
     inkscape:pageopacity="0"
     guidetolerance="10"
     gridtolerance="10"
     objecttolerance="10"
     borderopacity="1"
     bordercolor="#666666"
     pagecolor="#ffffff" />
  <defs
     id="defs18">
    <linearGradient
       gradientUnits="userSpaceOnUse"
       gradientTransform="matrix(1 0 0 1.1 16.669 62.435)"
       y2="-54.196"
       y1="-43.254"
       x2="-.30109"
       x1="-15.961"
       id="linearGradient1064">
      <stop
         id="stop2"
         offset="0"
         stop-color="#005ae1" />
      <stop
         id="stop4"
         offset="1"
         stop-color="#228be6" />
    </linearGradient>
    <linearGradient
       gradientUnits="userSpaceOnUse"
       gradientTransform="matrix(1 0 0 1.1 16.669 62.435)"
       y2="-44.835"
       y1="-55.616"
       x2="-1.0699"
       x1="-16.14"
       id="linearGradient992">
      <stop
         id="stop7"
         offset="0"
         stop-color="#005ae1" />
      <stop
         id="stop9"
         offset="1"
         stop-color="#228be6" />
    </linearGradient>
    <linearGradient
       gradientUnits="userSpaceOnUse"
       gradientTransform="matrix(1,0,0,1.1,16.669,62.435)"
       y2="14.872"
       y1="2.7784"
       x2="16.217"
       x1=".52939"
       id="linearGradient1006">
      <stop
         id="stop12"
         offset="0"
         stop-color="#005ae1" />
      <stop
         id="stop14"
         offset="1"
         stop-color="#228be6" />
    </linearGradient>
    <linearGradient
       xlink:href="#linearGradient992"
       gradientUnits="userSpaceOnUse"
       gradientTransform="matrix(1,0,0,1.1,16.669,62.435)"
       y2="-44.835"
       y1="-55.616"
       x2="-1.0699"
       x1="-16.14"
       id="linearGradient939" />
  </defs>
  <metadata
     id="metadata20">
    <rdf:RDF>
      <cc:Work
         rdf:about="">
        <dc:format>image/svg+xml</dc:format>
        <dc:type
           rdf:resource="http://purl.org/dc/dcmitype/StillImage" />
        <dc:title />
      </cc:Work>
    </rdf:RDF>
  </metadata>
  <g
     id="g30"
     stroke-width=".26458"
     fill="#5e4aa6">
    <circle
       id="circle22"
       r="0"
       cy="-328.38"
       cx="-330.35" />
    <circle
       id="circle24"
       r="0"
       cy="-326.25"
       cx="-312.11" />
    <circle
       id="circle26"
       r="0"
       cy="-333.07"
       cx="-306.02" />
    <circle
       id="circle28"
       r="0"
       cy="-326.01"
       cx="-308.84" />
  </g>
  <g
     id="g42"
     stroke-width=".26458"
     fill="#5e4aa6"
     transform="translate(.000295 -.00032978)">
    <circle
       id="circle32"
       r="0"
       cy="-328.38"
       cx="-330.35" />
    <circle
       id="circle34"
       r="0"
       cy="-326.25"
       cx="-312.11" />
    <circle
       id="circle36"
       r="0"
       cy="-333.07"
       cx="-306.02" />
    <circle
       id="circle38"
       r="0"
       cy="-326.01"
       cx="-308.84" />
    <circle
       id="circle40"
       r="0"
       cy="-330.45"
       cx="-328.8" />
  </g>
  <g
     id="g52"
     transform="translate(.000295 -.00032978)">
    <g
       id="g46"
       stroke-width=".66145"
       fill="url(#linearGradient939)"
       transform="matrix(1,0,0,1.1,16.669,63.956)">
      <path
         id="path44"
         fill="url(#linearGradient939)"
         d="m-8.2026-51.317h-7.9373v-3.6379c0-0.36531 0.29614-0.66144 0.66144-0.66144h5.6223l1.6536 1.3229z" />
    </g>
    <rect
       id="rect48"
       fill="url(#linearGradient1006)"
       ry=".79373"
       height="10.848"
       width="15.874"
       y="4.2333"
       x=".52939" />
    <rect
       id="rect50"
       fill="#fffffc"
       ry=".29919"
       height="9.9217"
       width="14.987"
       y="4.6963"
       x=".97311" />
  </g>
  <path
     id="path54"
     stroke-width=".69373"
     fill="url(#linearGradient1064)"
     d="m15.742 4.2329h-7.2759l-1.6536 1.4552h-5.6223c-0.36531 0-0.66144 0.32575-0.66144 0.72759v7.9373c0 0.40184 0.29614 0.72759 0.66144 0.72759h14.552c0.36531 0 0.66145-0.32575 0.66145-0.72759v-9.3926c0-0.40184-0.29614-0.72759-0.66145-0.72759z" />
  <path
     style="fill:#001e52;fill-opacity:1;stroke-width:0.264578"
     d="m 9.5756074,12.944558 h -0.02646 l -0.02646,-0.02646 v -0.158747 -0.661445 c 0,-0.185205 -0.02646,-0.343952 -0.105831,-0.476241 0.6085286,-0.105831 1.2699746,-0.423325 1.2699746,-1.613926 0,-0.3174946 -0.105832,-0.6085306 -0.291036,-0.8466506 0.05292,-0.158747 0.07937,-0.4497831 -0.05292,-0.8201925 l -0.07937,-0.079373 c 0,0 -0.05292,-0.026458 -0.105831,-0.026458 -0.1587466,0 -0.3968676,0.052916 -0.7937346,0.3174937 -0.211662,-0.026458 -0.449783,-0.079373 -0.714361,-0.079373 -0.264578,0 -0.502698,0.026458 -0.740819,0.079373 -0.370409,-0.2381203 -0.634987,-0.2910359 -0.793734,-0.2910359 -0.05292,0 -0.07937,0.026458 -0.105831,0.026458 -0.02646,0 -0.07937,0.052916 -0.07937,0.079373 -0.13229,0.3704098 -0.105832,0.6614461 -0.05292,0.8201931 -0.185205,0.23812 -0.291036,0.529156 -0.291036,0.8466502 0,1.164143 0.687903,1.481637 1.269975,1.613926 -0.02646,0.05292 -0.05292,0.132289 -0.07937,0.211663 -0.05292,0.02646 -0.132289,0.05292 -0.238121,0.05292 -0.105831,0 -0.211662,-0.02646 -0.291036,-0.105832 l -0.02646,-0.02646 c -0.02646,-0.02646 -0.02646,-0.05292 -0.05292,-0.05292 l -0.02646,-0.02646 -0.02646,-0.02646 c 0,-0.02646 -0.211662,-0.343951 -0.582071,-0.370409 -0.132289,0 -0.238121,0.05292 -0.264578,0.132289 -0.05292,0.132289 0.105831,0.23812 0.185204,0.291036 0,0 0.158747,0.07937 0.264578,0.370409 0.05292,0.185206 0.291037,0.529157 0.846651,0.529157 h 0.185204 v 0.37041 l -0.02646,0.02646 c 0,0 -0.02646,0 0,0 -1.190601,-0.476241 -1.9843352,-1.587469 -1.9843352,-2.830987 0,-1.6139264 1.2964332,-2.9103592 2.9103592,-2.9103592 1.6139266,0 2.9103586,1.2964328 2.9103586,2.9103592 0,1.243518 -0.793734,2.354746 -1.9843346,2.751613 z"
     id="path2" />
</svg>
