<?xml version="1.0" encoding="UTF-8" standalone="no"?>
<svg
   xmlns:dc="http://purl.org/dc/elements/1.1/"
   xmlns:cc="http://creativecommons.org/ns#"
   xmlns:rdf="http://www.w3.org/1999/02/22-rdf-syntax-ns#"
   xmlns:svg="http://www.w3.org/2000/svg"
   xmlns="http://www.w3.org/2000/svg"
   xmlns:xlink="http://www.w3.org/1999/xlink"
   xmlns:sodipodi="http://sodipodi.sourceforge.net/DTD/sodipodi-0.dtd"
   xmlns:inkscape="http://www.inkscape.org/namespaces/inkscape"
   inkscape:version="1.0 (1.0+r73+1)"
   sodipodi:docname="folder-temp.svg"
   id="svg56"
   viewBox="0 0 16.933 16.933"
   version="1.1"
   height="64"
   width="64">
  <sodipodi:namedview
     inkscape:current-layer="svg56"
     inkscape:window-maximized="1"
     inkscape:window-y="0"
     inkscape:window-x="0"
     inkscape:cy="32"
     inkscape:cx="32.074941"
     inkscape:zoom="13.34375"
     showgrid="false"
     id="namedview58"
     inkscape:window-height="1025"
     inkscape:window-width="1920"
     inkscape:pageshadow="2"
     inkscape:pageopacity="0"
     guidetolerance="10"
     gridtolerance="10"
     objecttolerance="10"
     borderopacity="1"
     bordercolor="#666666"
     pagecolor="#ffffff" />
  <defs
     id="defs18">
    <linearGradient
       gradientUnits="userSpaceOnUse"
       gradientTransform="matrix(1 0 0 1.1 16.669 62.435)"
       y2="-54.196"
       y1="-43.254"
       x2="-.30109"
       x1="-15.961"
       id="linearGradient1064">
      <stop
         id="stop2"
         offset="0"
         stop-color="#E11D29" />
      <stop
         id="stop4"
         offset="1"
         stop-color="#EC505A" />
    </linearGradient>
    <linearGradient
       gradientUnits="userSpaceOnUse"
       gradientTransform="matrix(1 0 0 1.1 16.669 62.435)"
       y2="-44.835"
       y1="-55.616"
       x2="-1.0699"
       x1="-16.14"
       id="linearGradient992">
      <stop
         id="stop7"
         offset="0"
         stop-color="#E11D29" />
      <stop
         id="stop9"
         offset="1"
         stop-color="#EC505A" />
    </linearGradient>
    <linearGradient
       gradientUnits="userSpaceOnUse"
       gradientTransform="matrix(1,0,0,1.1,16.669,62.435)"
       y2="14.872"
       y1="2.7784"
       x2="16.217"
       x1=".52939"
       id="linearGradient1006">
      <stop
         id="stop12"
         offset="0"
         stop-color="#E11D29" />
      <stop
         id="stop14"
         offset="1"
         stop-color="#EC505A" />
    </linearGradient>
    <linearGradient
       xlink:href="#linearGradient992"
       gradientUnits="userSpaceOnUse"
       gradientTransform="matrix(1,0,0,1.1,16.669,62.435)"
       y2="-44.835"
       y1="-55.616"
       x2="-1.0699"
       x1="-16.14"
       id="linearGradient939" />
  </defs>
  <metadata
     id="metadata20">
    <rdf:RDF>
      <cc:Work
         rdf:about="">
        <dc:format>image/svg+xml</dc:format>
        <dc:type
           rdf:resource="http://purl.org/dc/dcmitype/StillImage" />
        <dc:title />
      </cc:Work>
    </rdf:RDF>
  </metadata>
  <g
     id="g30"
     stroke-width=".26458"
     fill="#5e4aa6">
    <circle
       id="circle22"
       r="0"
       cy="-328.38"
       cx="-330.35" />
    <circle
       id="circle24"
       r="0"
       cy="-326.25"
       cx="-312.11" />
    <circle
       id="circle26"
       r="0"
       cy="-333.07"
       cx="-306.02" />
    <circle
       id="circle28"
       r="0"
       cy="-326.01"
       cx="-308.84" />
  </g>
  <g
     id="g42"
     stroke-width=".26458"
     fill="#5e4aa6"
     transform="translate(.000295 -.00032978)">
    <circle
       id="circle32"
       r="0"
       cy="-328.38"
       cx="-330.35" />
    <circle
       id="circle34"
       r="0"
       cy="-326.25"
       cx="-312.11" />
    <circle
       id="circle36"
       r="0"
       cy="-333.07"
       cx="-306.02" />
    <circle
       id="circle38"
       r="0"
       cy="-326.01"
       cx="-308.84" />
    <circle
       id="circle40"
       r="0"
       cy="-330.45"
       cx="-328.8" />
  </g>
  <g
     id="g52"
     transform="translate(.000295 -.00032978)">
    <g
       id="g46"
       stroke-width=".66145"
       fill="url(#linearGradient939)"
       transform="matrix(1,0,0,1.1,16.669,63.956)">
      <path
         id="path44"
         fill="url(#linearGradient939)"
         d="m-8.2026-51.317h-7.9373v-3.6379c0-0.36531 0.29614-0.66144 0.66144-0.66144h5.6223l1.6536 1.3229z" />
    </g>
    <rect
       id="rect48"
       fill="url(#linearGradient1006)"
       ry=".79373"
       height="10.848"
       width="15.874"
       y="4.2333"
       x=".52939" />
    <rect
       id="rect50"
       fill="#fffffc"
       ry=".29919"
       height="9.9217"
       width="14.987"
       y="4.6963"
       x=".97311" />
  </g>
  <path
     id="path54"
     stroke-width=".69373"
     fill="url(#linearGradient1064)"
     d="m15.742 4.2329h-7.2759l-1.6536 1.4552h-5.6223c-0.36531 0-0.66144 0.32575-0.66144 0.72759v7.9373c0 0.40184 0.29614 0.72759 0.66144 0.72759h14.552c0.36531 0 0.66145-0.32575 0.66145-0.72759v-9.3926c0-0.40184-0.29614-0.72759-0.66145-0.72759z" />
  <g
     style="fill:#870D00;fill-opacity:1"
     transform="matrix(0.01636767,0,0,0.01636767,5.8262029,7.2203431)"
     id="g24">
    <g
       style="fill:#870D00;fill-opacity:1"
       id="g22">
      <g
         style="fill:#870D00;fill-opacity:1"
         id="g20">
        <path
           style="fill:#870D00;fill-opacity:1"
           d="m 184,60 c 4.4,0 8,-3.6 8,-8 v -4 c 0,-4.4 -3.6,-8 -8,-8 -4.4,0 -8,3.6 -8,8 v 4 c 0,4.4 3.6,8 8,8 z"
           id="path2" />
        <path
           style="fill:#870D00;fill-opacity:1"
           d="m 184,308 c -4.4,0 -8,3.6 -8,8 v 4 c 0,4.4 3.6,8 8,8 4.4,0 8,-3.6 8,-8 v -4 c 0,-4.4 -3.6,-8 -8,-8 z"
           id="path4" />
        <path
           style="fill:#870D00;fill-opacity:1"
           d="m 52,176 h -4 c -4.4,0 -8,3.6 -8,8 0,4.4 3.6,8 8,8 h 4 c 4.4,0 8,-3.6 8,-8 0,-4.4 -3.6,-8 -8,-8 z"
           id="path6" />
        <path
           style="fill:#870D00;fill-opacity:1"
           d="m 320,176 h -4 c -4.4,0 -8,3.6 -8,8 0,4.4 3.6,8 8,8 h 4 c 4.4,0 8,-3.6 8,-8 0,-4.4 -3.6,-8 -8,-8 z"
           id="path8" />
        <path
           style="fill:#870D00;fill-opacity:1"
           d="m 93.6,82.4 c -3.2,-3.2 -8,-3.2 -11.2,0 -3.2,3.2 -3.2,8 0,11.2 l 2.8,2.8 c 1.6,1.6 3.6,2.4 5.6,2.4 2,0 4,-0.8 5.6,-2.4 3.2,-3.2 3.2,-8 0,-11.2 z"
           id="path10" />
        <path
           style="fill:#870D00;fill-opacity:1"
           d="m 85.2,271.6 -2.8,2.8 c -3.2,3.2 -3.2,8 0,11.2 1.6,1.6 3.6,2.4 5.6,2.4 2,0 4,-0.8 5.6,-2.4 l 2.8,-2.8 c 3.2,-3.2 3.2,-8 0,-11.2 -3.2,-3.2 -8,-3.2 -11.2,0 z"
           id="path12" />
        <path
           style="fill:#870D00;fill-opacity:1"
           d="m 274.4,82.4 -2.8,2.8 c -3.2,3.2 -3.2,8 0,11.2 1.6,1.6 3.6,2.4 5.6,2.4 2,0 4,-0.8 5.6,-2.4 l 2.8,-2.8 c 3.2,-3.2 3.2,-8 0,-11.2 -3.2,-3.2 -8,-3.2 -11.2,0 z"
           id="path14" />
        <path
           style="fill:#870D00;fill-opacity:1"
           d="M 192,180.8 V 108 c 0,-4.4 -3.6,-8 -8,-8 -4.4,0 -8,3.6 -8,8 v 76 c 0,2 0.8,4 2.4,5.6 l 87.6,87.6 c 1.6,1.6 3.6,2.4 5.6,2.4 2,0 4,-0.8 5.6,-2.4 3.2,-3.2 3.2,-8 0,-11.2 z"
           id="path16" />
        <path
           style="fill:#870D00;fill-opacity:1"
           d="M 184,0 C 82.4,0 0,82.4 0,184 0,285.6 82.4,368 184,368 285.6,368 368,285.6 368,184 368,82.4 285.6,0 184,0 Z m 0,352 C 91.2,352 16,276.8 16,184 16,91.2 91.2,16 184,16 c 92.8,0 168,75.2 168,168 0,92.8 -75.2,168 -168,168 z"
           id="path18" />
      </g>
    </g>
  </g>
</svg>
