<?xml version="1.0" encoding="UTF-8" standalone="no"?>
<svg
   xmlns:dc="http://purl.org/dc/elements/1.1/"
   xmlns:cc="http://creativecommons.org/ns#"
   xmlns:rdf="http://www.w3.org/1999/02/22-rdf-syntax-ns#"
   xmlns:svg="http://www.w3.org/2000/svg"
   xmlns="http://www.w3.org/2000/svg"
   xmlns:sodipodi="http://sodipodi.sourceforge.net/DTD/sodipodi-0.dtd"
   xmlns:inkscape="http://www.inkscape.org/namespaces/inkscape"
   inkscape:version="1.0 (1.0+r73+1)"
   sodipodi:docname="user-home.svg"
   id="svg67"
   viewBox="0 0 16.933 16.933"
   version="1.1"
   height="64"
   width="64">
  <sodipodi:namedview
     inkscape:current-layer="svg67"
     inkscape:window-maximized="1"
     inkscape:window-y="0"
     inkscape:window-x="0"
     inkscape:cy="32"
     inkscape:cx="32.074941"
     inkscape:zoom="13.34375"
     showgrid="false"
     id="namedview69"
     inkscape:window-height="1025"
     inkscape:window-width="1920"
     inkscape:pageshadow="2"
     inkscape:pageopacity="0"
     guidetolerance="10"
     gridtolerance="10"
     objecttolerance="10"
     borderopacity="1"
     bordercolor="#666666"
     pagecolor="#ffffff" />
  <defs
     id="defs17">
    <linearGradient
       gradientUnits="userSpaceOnUse"
       gradientTransform="matrix(1 0 0 1.1 16.669 62.435)"
       y2="-54.196"
       y1="-43.254"
       x2="-.30109"
       x1="-15.961"
       id="linearGradient1064">
      <stop
         id="stop2"
         offset="0"
         stop-color="#E11D29" />
      <stop
         id="stop4"
         offset="1"
         stop-color="#EC505A" />
    </linearGradient>
    <linearGradient
       gradientUnits="userSpaceOnUse"
       gradientTransform="matrix(1,0,0,1.1,16.669,62.435)"
       y2="14.872"
       y1="2.7784"
       x2="16.217"
       x1=".52939"
       id="linearGradient1006">
      <stop
         id="stop7"
         offset="0"
         stop-color="#E11D29" />
      <stop
         id="stop9"
         offset="1"
         stop-color="#EC505A" />
    </linearGradient>
    <linearGradient
       gradientUnits="userSpaceOnUse"
       gradientTransform="matrix(1,0,0,1.1,16.669,62.435)"
       y2="-44.835"
       y1="-55.616"
       x2="-1.0699"
       x1="-16.14"
       id="linearGradient954">
      <stop
         id="stop12"
         offset="0"
         stop-color="#E11D29" />
      <stop
         id="stop14"
         offset="1"
         stop-color="#EC505A" />
    </linearGradient>
  </defs>
  <metadata
     id="metadata19">
    <rdf:RDF>
      <cc:Work
         rdf:about="">
        <dc:format>image/svg+xml</dc:format>
        <dc:type
           rdf:resource="http://purl.org/dc/dcmitype/StillImage" />
        <dc:title />
      </cc:Work>
    </rdf:RDF>
  </metadata>
  <g
     id="g31"
     stroke-width=".26458"
     fill="#5e4aa6">
    <circle
       id="circle21"
       r="0"
       cy="-328.38"
       cx="-330.35" />
    <circle
       id="circle23"
       r="0"
       cy="-326.25"
       cx="-312.11" />
    <circle
       id="circle25"
       r="0"
       cy="-333.07"
       cx="-306.02" />
    <circle
       id="circle27"
       r="0"
       cy="-326.01"
       cx="-308.84" />
    <circle
       id="circle29"
       r="0"
       cy="-330.45"
       cx="-328.8" />
  </g>
  <g
     id="g43"
     stroke-width=".26458"
     fill="#5e4aa6"
     transform="translate(.000295 -.00032978)">
    <circle
       id="circle33"
       r="0"
       cy="-328.38"
       cx="-330.35" />
    <circle
       id="circle35"
       r="0"
       cy="-326.25"
       cx="-312.11" />
    <circle
       id="circle37"
       r="0"
       cy="-333.07"
       cx="-306.02" />
    <circle
       id="circle39"
       r="0"
       cy="-326.01"
       cx="-308.84" />
    <circle
       id="circle41"
       r="0"
       cy="-330.45"
       cx="-328.8" />
  </g>
  <g
     id="g53"
     transform="translate(.000295 -.00032978)">
    <g
       id="g47"
       stroke-width=".66145"
       fill="url(#linearGradient954)"
       transform="matrix(1,0,0,1.1,16.669,63.956)">
      <path
         id="path45"
         fill="url(#linearGradient954)"
         d="m-8.2026-51.317h-7.9373v-3.6379c0-0.36531 0.29614-0.66144 0.66144-0.66144h5.6223l1.6536 1.3229z" />
    </g>
    <rect
       id="rect49"
       fill="url(#linearGradient1006)"
       ry=".79373"
       height="10.848"
       width="15.874"
       y="4.2333"
       x=".52939" />
    <rect
       id="rect51"
       fill="#fffffc"
       ry=".29919"
       height="9.9217"
       width="14.987"
       y="4.6963"
       x=".97311" />
  </g>
  <path
     id="path55"
     stroke-width=".69373"
     fill="url(#linearGradient1064)"
     d="m15.742 4.2329h-7.2759l-1.6536 1.4552h-5.6223c-0.36531 0-0.66144 0.32575-0.66144 0.72759v7.9373c0 0.40184 0.29614 0.72759 0.66144 0.72759h14.552c0.36531 0 0.66145-0.32575 0.66145-0.72759v-9.3926c0-0.40184-0.29614-0.72759-0.66145-0.72759z" />
  <g
     style="stroke:#870D00;stroke-width:1.00348453;stroke-miterlimit:4;stroke-dasharray:none;stroke-opacity:1"
     id="g65"
     stroke="#EC505A"
     fill="#870D00"
     enable-background="new"
     transform="matrix(0,-0.054052,-0.051444,0,28.703,32.383)">
    <path
       style="stroke:#870D00;stroke-width:1.00348453;stroke-miterlimit:4;stroke-dasharray:none;stroke-opacity:1"
       id="path57"
       enable-background="accumulate"
       color="#000000"
       d="m 417.99,353.36 h 12.005 v 12.011 z" />
    <path
       style="stroke:#870D00;stroke-width:1.00348453;stroke-miterlimit:4;stroke-dasharray:none;stroke-opacity:1"
       id="path59"
       d="m 403.99,433.36 h -54.021 l -1.5e-4,-52 h 4.0016 l 1.5e-4,47.988 54.021,0.0117 z m 4.0016,-76 -58.023,2e-5 v -4.0117 l 54.022,0.0117 z" />
    <path
       id="path61"
       style="font-variant-ligatures:none;font-variant-position:normal;font-variant-caps:normal;font-variant-numeric:normal;font-variant-alternates:normal;font-feature-settings:normal;text-indent:0;text-decoration:none;text-decoration-line:none;text-decoration-style:solid;text-decoration-color:#000000;text-transform:none;white-space:normal;shape-padding:0;isolation:auto;mix-blend-mode:normal;stroke:#870D00;stroke-width:1.00348453;stroke-miterlimit:4;stroke-dasharray:none;stroke-opacity:1"
       solid-color="#000000"
       shape-rendering="auto"
       image-rendering="auto"
       enable-background="accumulate"
       color-rendering="auto"
       color="#000000"
       d="m 395.38,341.93 -2.7949,2.8613 49.554,48.57 -49.554,48.568 2.7949,2.8613 52.486,-51.432 z" />
    <path
       style="stroke:#870D00;stroke-width:1.00348453;stroke-miterlimit:4;stroke-dasharray:none;stroke-opacity:1"
       id="path63"
       d="m 388.75,397.36 c 0.2538,-1.0158 0.5239,-2.3651 0.80985,-4.0476 0.28572,-1.6825 0.42858,-3.619 0.42858,-5.8095 0,-1.9682 -0.28571,-3.6032 -0.85748,-4.9048 -0.5399,-1.3016 -1.318,-2.3333 -2.3343,-3.0952 -0.98451,-0.79367 -2.1755,-1.3492 -3.5728,-1.6667 -1.3974,-0.31762 -2.9376,-0.47618 -4.6208,-0.47618 h -28.63 l 1.9e-4,20 z" />
  </g>
</svg>
